<svg aria-hidden="true" style="position: absolute; width: 0; height: 0; overflow: hidden;" version="1.1" xmlns="http://www.w3.org/2000/svg" xmlns:xlink="http://www.w3.org/1999/xlink">
<defs>
<symbol id="icon-cloud-no-shadow" viewBox="0 0 32 32">
<path d="M19.448 6.508c0.136 0.148 0.136 0.148 0.136 0.276 0.042 0 0.084 0 0.128 0 0 0.042 0 0.084 0 0.128 0.042 0 0.084 0 0.128 0 0 0.042 0 0.084 0 0.128 0.039-0.013 0.079-0.026 0.119-0.040 0.818-0.273 1.57-0.318 2.373 0.044 0.786 0.416 1.327 1.082 1.604 1.916 0.055 0.187 0.072 0.352 0.070 0.547-0 0.054-0 0.108-0.001 0.164s-0.001 0.112-0.002 0.169c-0 0.057-0.001 0.114-0.001 0.172-0.001 0.14-0.002 0.28-0.003 0.42 0.051 0.006 0.102 0.013 0.155 0.019 1.275 0.174 2.341 0.713 3.137 1.745 0.495 0.664 0.837 1.43 0.868 2.268 0.003 0.069 0.005 0.139 0.008 0.21 0.021 1.138-0.288 2.231-1.032 3.118-0.042 0-0.084 0-0.128 0-0.016 0.040-0.032 0.079-0.048 0.12-0.093 0.158-0.168 0.197-0.336 0.264 0 0.042 0 0.084 0 0.128-0.704 0.617-1.697 1.042-2.639 1.023-0.265-0.004-0.495-0.001-0.753 0.066-0.201 0.23-0.28 0.485-0.384 0.768-0.102 0.165-0.102 0.165-0.208 0.304-0.031 0.041-0.061 0.081-0.093 0.123-0.027 0.028-0.055 0.056-0.083 0.085-0.042 0-0.084 0-0.128 0 0 0.042 0 0.084 0 0.128-0.783 0.729-1.756 1.074-2.816 1.088-0.665-0.028-1.269-0.207-1.838-0.554-0.136-0.097-0.136-0.097-0.274-0.086-0.079 0.093-0.079 0.093-0.16 0.216-0.669 0.911-1.526 1.483-2.592 1.832-0.078 0.026-0.156 0.053-0.236 0.080-1.345 0.305-2.751 0.057-3.924-0.656-0.064-0.038-0.064-0.038-0.129-0.077-0.107-0.067-0.107-0.067-0.255-0.179 0-0.042 0-0.084 0-0.128-0.057-0.028-0.057-0.028-0.116-0.056-0.14-0.072-0.14-0.072-0.332-0.2 0-0.042 0-0.084 0-0.128-0.042 0-0.084 0-0.128 0-0.108-0.131-0.207-0.261-0.304-0.4-0.029-0.041-0.057-0.081-0.087-0.123-0.443-0.641-0.7-1.286-0.889-2.037-0.074-0.015-0.149-0.030-0.225-0.045-1.404-0.289-2.598-0.896-3.443-2.091-0.67-1.080-0.936-2.335-0.696-3.592 0.024-0.096 0.049-0.192 0.076-0.288 0.011-0.049 0.022-0.098 0.033-0.149 0.197-0.79 0.674-1.463 1.247-2.027 0.045-0.045 0.091-0.091 0.138-0.137 0.899-0.849 2.017-1.233 3.239-1.211 0.047 0.002 0.095 0.003 0.143 0.005 0.010-0.056 0.020-0.112 0.031-0.169 0.198-1.010 0.634-1.987 1.313-2.775 0.042 0 0.084 0 0.128 0 0.026-0.057 0.026-0.057 0.053-0.115 0.505-0.945 1.949-1.587 2.909-1.883 0.086-0.024 0.086-0.024 0.174-0.050 0.047-0.014 0.094-0.027 0.142-0.042 2.119-0.546 4.365 0.228 5.931 1.685z"></path>
<path d="M26.5 11.544c0.445 0.071 0.632 0.435 0.885 0.782 0.685 1.012 0.915 2.185 0.731 3.39-0.157 0.748-0.486 1.488-0.98 2.076-0.042 0-0.084 0-0.128 0-0.016 0.040-0.032 0.079-0.048 0.12-0.093 0.158-0.168 0.197-0.336 0.264 0 0.042 0 0.084 0 0.128-0.704 0.617-1.697 1.042-2.639 1.023-0.265-0.004-0.495-0.001-0.753 0.066-0.201 0.23-0.28 0.485-0.384 0.768-0.102 0.165-0.102 0.165-0.208 0.304-0.031 0.041-0.061 0.081-0.093 0.123-0.041 0.042-0.041 0.042-0.083 0.085-0.042 0-0.084 0-0.128 0 0 0.042 0 0.084 0 0.128-0.783 0.729-1.756 1.074-2.816 1.088-0.665-0.028-1.269-0.207-1.838-0.554-0.136-0.097-0.136-0.097-0.274-0.086-0.079 0.093-0.079 0.093-0.16 0.216-0.669 0.911-1.526 1.483-2.592 1.832-0.117 0.040-0.117 0.040-0.236 0.080-1.345 0.305-2.751 0.057-3.924-0.656-0.043-0.025-0.085-0.051-0.129-0.077-0.107-0.067-0.107-0.067-0.255-0.179 0-0.042 0-0.084 0-0.128-0.038-0.018-0.077-0.037-0.116-0.056-0.14-0.072-0.14-0.072-0.332-0.2 0-0.042 0-0.084 0-0.128-0.042 0-0.084 0-0.128 0-0.618-0.752-1.060-1.512-1.152-2.496 0.042 0 0.084 0 0.128 0 0.192 0.368 0.192 0.368 0.192 0.512 0.042 0 0.084 0 0.128 0 0.256 0.346 0.256 0.346 0.256 0.512 0.037 0.005 0.074 0.011 0.112 0.016 0.186 0.062 0.274 0.156 0.4 0.304 0 0.042 0 0.084 0 0.128 0.069 0.024 0.069 0.024 0.14 0.048 0.18 0.080 0.18 0.080 0.32 0.196 0.741 0.576 1.579 0.728 2.492 0.732 0.102 0.002 0.102 0.002 0.207 0.004 0.593 0.003 1.125-0.108 1.678-0.32 0.22-0.084 0.22-0.084 0.412-0.084 0-0.042 0-0.084 0-0.128 0.107-0.082 0.107-0.082 0.248-0.168 0.046-0.029 0.092-0.057 0.139-0.087 0.124-0.066 0.124-0.066 0.252-0.066 0-0.042 0-0.084 0-0.128 0.107-0.11 0.107-0.11 0.248-0.232 0.046-0.040 0.092-0.081 0.139-0.122 0.125-0.093 0.125-0.093 0.253-0.093 0-0.042 0-0.084 0-0.128 0.042 0 0.084 0 0.128 0 0.020-0.040 0.040-0.079 0.060-0.12 0.044-0.088 0.088-0.176 0.132-0.264 0.042 0 0.084 0 0.128 0 0-0.063 0-0.127 0-0.192 0.063 0 0.127 0 0.192 0 0 0.042 0 0.084 0 0.128 0.054 0.017 0.108 0.034 0.164 0.052 0.22 0.076 0.22 0.076 0.428 0.172 0.807 0.344 1.881 0.35 2.697 0.037 0.251-0.106 0.465-0.218 0.679-0.389 0.042 0 0.084 0 0.128 0 0-0.042 0-0.084 0-0.128 0.041-0.007 0.082-0.013 0.124-0.020 0.044-0.015 0.087-0.029 0.132-0.044 0.021-0.063 0.042-0.127 0.064-0.192 0.063 0 0.127 0 0.192 0 0.028-0.057 0.028-0.057 0.056-0.116 0.072-0.14 0.072-0.14 0.2-0.332 0.042 0 0.084 0 0.128 0 0.016-0.051 0.032-0.103 0.048-0.156 0.064-0.182 0.134-0.354 0.213-0.53 0.023-0.051 0.046-0.103 0.070-0.156 0.018-0.039 0.035-0.078 0.053-0.118 0.056 0 0.056 0 0.113 0 1.183-0.005 2.035-0.193 2.986-0.905 0.165-0.119 0.165-0.119 0.357-0.183 0.077-0.128 0.077-0.128 0.128-0.256 0.042 0 0.084 0 0.128 0 0.042-0.127 0.084-0.253 0.128-0.384 0.042 0 0.084 0 0.128 0 0.021-0.084 0.042-0.169 0.064-0.256 0.042 0 0.084 0 0.128 0 0.017-0.065 0.034-0.129 0.052-0.196 0.069-0.243 0.169-0.468 0.268-0.7 0.331-1.033 0.243-2.241-0.24-3.216-0.046-0.081-0.094-0.162-0.144-0.24 0.064-0.064 0.064-0.064 0.26-0.104z"></path>
<path d="M3.904 14.848c0.017 0.034 0.034 0.068 0.051 0.104 0.057 0.114 0.115 0.228 0.173 0.341 0.051 0.101 0.051 0.101 0.104 0.204 0.035 0.068 0.069 0.135 0.104 0.204 0.080 0.171 0.080 0.171 0.080 0.3 0.042 0 0.084 0 0.128 0 0.042 0.127 0.084 0.253 0.128 0.384 0.042 0 0.084 0 0.128 0 0.021 0.084 0.042 0.169 0.064 0.256 0.053 0.006 0.053 0.006 0.108 0.012 0.209 0.073 0.312 0.216 0.468 0.372 0.265 0.194 0.536 0.37 0.832 0.512 0 0.042 0 0.084 0 0.128 0.071 0.007 0.143 0.013 0.216 0.020 0.214 0.026 0.407 0.074 0.612 0.14 0.301 0.096 0.585 0.135 0.9 0.16 0.012 0.057 0.025 0.114 0.037 0.173 0.017 0.075 0.033 0.15 0.050 0.227 0.016 0.074 0.033 0.148 0.050 0.225 0.046 0.174 0.102 0.305 0.182 0.463 0 0.063 0 0.127 0 0.192-1.076 0.070-1.973-0.334-2.79-1.015-0.767-0.677-1.441-1.531-1.627-2.569-0.009-0.278-0.008-0.554 0-0.832z"></path>
<path d="M5.568 10.88c0.042 0.021 0.084 0.042 0.128 0.064-0.178 0.253-0.39 0.46-0.614 0.673-0.175 0.169-0.321 0.311-0.41 0.543-0.042 0-0.084 0-0.128 0 0.089-0.267 0.213-0.435 0.404-0.64 0.051-0.055 0.102-0.111 0.155-0.168 0.152-0.16 0.306-0.319 0.465-0.473z"></path>
<path d="M25.856 11.072c0.343 0.021 0.53 0.224 0.768 0.448-0.192 0.128-0.192 0.128-0.312 0.128-0.215-0.101-0.316-0.257-0.456-0.448 0-0.042 0-0.084 0-0.128z"></path>
<path d="M3.904 14.848c0.020 0.040 0.039 0.080 0.059 0.121 0.065 0.134 0.065 0.134 0.145 0.247 0.082 0.227 0.027 0.42-0.012 0.656-0.042 0-0.084 0-0.128 0-0.073-0.219-0.070-0.39-0.068-0.62 0.001-0.075 0.001-0.151 0.002-0.229 0.001-0.058 0.002-0.116 0.002-0.175z"></path>
<path d="M21.824 21.056c-0.071 0.213-0.094 0.229-0.28 0.332-0.039 0.022-0.078 0.044-0.117 0.067-0.114 0.049-0.114 0.049-0.306 0.049 0.021-0.127 0.042-0.253 0.064-0.384 0.055 0.020 0.055 0.020 0.112 0.040 0.216 0.036 0.319-0.104 0.528-0.104z"></path>
<path d="M22.336 7.232c0.342 0.024 0.481 0.128 0.704 0.384-0.424 0.016-0.424 0.016-0.64-0.128-0.044-0.136-0.044-0.136-0.064-0.256z"></path>
<path d="M23.616 8.512c0.063 0.021 0.127 0.042 0.192 0.064 0.074 0.222 0.068 0.407 0.064 0.64-0.063 0-0.127 0-0.192 0 0.042-0.084 0.084-0.169 0.128-0.256-0.042 0-0.084 0-0.128 0-0.021-0.148-0.042-0.296-0.064-0.448z"></path>
<path d="M6.848 10.304c-0.108 0.132-0.108 0.132-0.256 0.256-0.176-0.016-0.176-0.016-0.32-0.064 0.127-0.254 0.323-0.282 0.576-0.192z"></path>
<path d="M14.336 4.736c-0.128 0.192-0.128 0.192-0.328 0.236-0.061 0.007-0.121 0.013-0.184 0.020-0.042-0.063-0.084-0.127-0.128-0.192 0.216-0.067 0.415-0.069 0.64-0.064z"></path>
<path d="M10.688 22.784c0.169 0 0.338 0 0.512 0 0 0.084 0 0.169 0 0.256-0.368-0.112-0.368-0.112-0.512-0.256z"></path>
<path d="M9.792 22.080c0.188 0.048 0.188 0.048 0.384 0.128 0.056 0.136 0.056 0.136 0.064 0.256-0.042 0-0.084 0-0.128 0 0-0.042 0-0.084 0-0.128-0.041-0.018-0.082-0.037-0.124-0.056-0.132-0.072-0.132-0.072-0.196-0.2z"></path>
<path d="M22.848 19.648c0.042 0.063 0.084 0.127 0.128 0.192-0.056 0.172-0.056 0.172-0.128 0.32-0.063-0.084-0.127-0.169-0.192-0.256 0.042 0 0.084 0 0.128 0 0.021-0.084 0.042-0.169 0.064-0.256z"></path>
<path d="M10.624 6.4c0.021 0.063 0.042 0.127 0.064 0.192-0.106 0.084-0.211 0.169-0.32 0.256-0.042-0.021-0.084-0.042-0.128-0.064 0.127-0.127 0.253-0.253 0.384-0.384z"></path>
</symbol>
</defs>
</svg>
