<?xml version="1.0" encoding="UTF-8"?>
<svg xmlns="http://www.w3.org/2000/svg" width="64" height="64" viewBox="0 0 500 831" preserveAspectRatio="xMidYMid meet" role="img" aria-hidden="false">
<path d="M0 0 C1.86852091 2.10438338 3.4958422 4.15656602 5.125 6.4375 C5.85251465 7.45142822 5.85251465 7.45142822 6.59472656 8.48583984 C22.08328524 30.58264737 30.28001112 55.96608298 30.140625 82.97265625 C30.13757858 83.91657227 30.13453217 84.86048828 30.13139343 85.83300781 C30.04286343 97.7366823 29.43319098 109.61440703 28.8125 121.5 C28.74886261 122.75790344 28.68522522 124.01580688 28.61965942 125.31182861 C27.40989864 149.18466344 25.85029095 173.03169342 24.27152252 196.88245392 C22.79576511 219.20630352 21.4828207 241.51497907 20.6875 263.875 C20.64825409 264.96544617 20.60900818 266.05589233 20.568573 267.17938232 C17.92570181 342.39623219 33.9959422 419.63116023 68.85644531 486.77294922 C70.19538859 489.38051552 71.50135115 492.0033637 72.8046875 494.62890625 C73.29211426 495.61052734 73.77954102 496.59214844 74.28173828 497.60351562 C75.23650904 499.52766288 76.19064534 501.45212513 77.14404297 503.37695312 C79.62037697 508.34585938 82.1889806 513.2120721 85 518 C102.94179124 516.8234891 120.27065111 513.56116773 133 500 C135.01169013 497.4615581 136.57732743 494.90671532 138 492 C138.31839844 491.35933594 138.63679688 490.71867187 138.96484375 490.05859375 C142.56916439 481.30524364 142.36215323 469.94896839 139.375 461.0625 C134.30712484 449.28454623 126.91536681 441.7004269 115.04296875 436.7265625 C111.60061094 435.50232053 108.55032225 434.87461877 104.890625 434.90234375 C103.8701709 434.90609009 103.8701709 434.90609009 102.82910156 434.90991211 C101.97799805 434.91901611 101.12689453 434.92812012 100.25 434.9375 C97.50000755 434.95938438 94.75000338 434.97951567 92 435 C93.58366166 416.79598874 95.74522765 398.66345886 97.90771437 380.52142763 C98.21413189 377.9497529 98.51989651 375.37800134 98.82545853 372.80622482 C99.89725251 363.78618792 100.97183255 354.76648756 102.04882812 345.74707031 C103.04364373 337.4151789 104.03194067 329.08253145 105.01727712 320.74951422 C105.87152435 313.52787666 106.73065115 306.30682971 107.59336054 299.08619821 C108.10499851 294.80316339 108.61478182 290.51993024 109.11948776 286.23607254 C116.54012967 223.30888527 132.21644546 163.40723754 177 116 C178.13029167 114.69205429 179.25543311 113.37963752 180.375 112.0625 C187.38189946 104.0546149 194.93887329 96.79719539 203.265625 90.17578125 C205.06830145 88.74136585 206.85043653 87.28069366 208.609375 85.79296875 C237.9614711 61 237.9614711 61 247 61 C247 259 247 457 247 661 C201.13 661 155.26 661 108 661 C107.67 663.97 107.34 666.94 107 670 C106.31262279 673.48435597 105.38120782 676.88917371 104.4375 680.3125 C104.17501465 681.26527832 103.9125293 682.21805664 103.64208984 683.19970703 C99.18032191 698.85862212 92.68028401 713.66851437 85 728 C84.68063477 728.60005859 84.36126953 729.20011719 84.03222656 729.81835938 C74.45741988 747.64596897 61.90481425 763.36430323 48 778 C47.49307617 778.53560547 46.98615234 779.07121094 46.46386719 779.62304688 C39.5251663 786.90370495 32.27995299 793.33247968 24.296875 799.44140625 C14.70428444 806.80773952 6.01526119 814.93195966 0.04296875 825.53125 C-0.30121094 826.0159375 -0.64539063 826.500625 -1 827 C-1.66 827 -2.32 827 -3 827 C-4.151762 825.35844231 -5.22134461 823.65887603 -6.25 821.9375 C-11.44830927 813.62655748 -16.8823133 808.13185163 -24.61010742 802.19628906 C-29.19174353 798.67409209 -33.51911873 794.95777348 -37.7734375 791.04296875 C-39.81427926 789.17040692 -41.89463697 787.36170466 -44 785.5625 C-52.52833043 778.09806592 -60.06403815 769.95411798 -67 761 C-67.62793457 760.1946582 -67.62793457 760.1946582 -68.26855469 759.37304688 C-87.42602265 734.63449299 -100.36496249 707.25759544 -108.875 677.25 C-109.07834961 676.53577881 -109.28169922 675.82155762 -109.49121094 675.08569336 C-109.6771582 674.4025708 -109.86310547 673.71944824 -110.0546875 673.015625 C-110.21437012 672.43071289 -110.37405273 671.84580078 -110.53857422 671.24316406 C-111.23348691 667.8649324 -111.57220866 664.4223307 -112 661 C-157.54 661 -203.08 661 -250 661 C-250 463 -250 265 -250 61 C-233.54471524 70.40301986 -233.54471524 70.40301986 -228.5 73.8125 C-227.88527832 74.2264502 -227.27055664 74.64040039 -226.63720703 75.06689453 C-214.90650129 83.0742329 -204.20618831 92.1412564 -194 102 C-193.37915527 102.59893066 -192.75831055 103.19786133 -192.11865234 103.81494141 C-184.21749741 111.47876503 -176.67233045 119.21998394 -170 128 C-169.58331055 128.54027832 -169.16662109 129.08055664 -168.73730469 129.63720703 C-131.99779733 177.43072372 -119.12836334 231.22636278 -112.25251937 289.94524169 C-111.68367798 294.7872743 -111.10459994 299.62808446 -110.52693176 304.46907043 C-109.56181478 312.56937651 -108.60379169 320.67049512 -107.65063477 328.7722168 C-106.55042234 338.12349015 -105.44069702 347.47359569 -104.32559985 356.82310504 C-103.13177286 366.83321407 -101.94421683 376.84405931 -100.75881791 386.85516953 C-100.41878561 389.723578 -100.07764897 392.59185336 -99.73628807 395.46010399 C-99.20125106 399.95868538 -98.67047085 404.45774975 -98.14296341 408.95722008 C-97.94925474 410.60411501 -97.75417054 412.25084883 -97.55759239 413.89740372 C-97.28911288 416.1483516 -97.02572042 418.39983956 -96.76359558 420.65153503 C-96.61522845 421.90919772 -96.46686132 423.16686041 -96.31399822 424.46263409 C-96.00039819 427.99551414 -95.94436484 431.45527558 -96 435 C-97.09957031 434.95359375 -98.19914063 434.9071875 -99.33203125 434.859375 C-113.58250307 434.43292697 -124.18947541 436.9952288 -135 447 C-142.50836416 456.04292034 -145.70657054 466.27118651 -145.34375 477.95703125 C-144.17400181 488.31196122 -139.6698261 497.63102182 -132.0859375 504.8125 C-123.13242482 511.94677305 -112.97333624 514.11987411 -101.9375 516.25 C-100.58118772 516.51986771 -99.22506585 516.79069424 -97.86914062 517.0625 C-94.58116896 517.71775414 -91.29160689 518.36330581 -88 519 C-87.74637695 518.16154541 -87.49275391 517.32309082 -87.23144531 516.45922852 C-85.88466186 512.67600593 -84.16452934 509.19509688 -82.296875 505.65234375 C-81.93660217 504.95919571 -81.57632935 504.26604767 -81.20513916 503.55189514 C-80.05755882 501.3449134 -78.9043213 499.14096251 -77.75 496.9375 C-69.83404848 481.80326832 -62.64802864 466.66488495 -56.75 450.625 C-56.47031372 449.86677948 -56.19062744 449.10855896 -55.90246582 448.32736206 C-42.19494787 411.08375447 -31.13783646 373.43374927 -26 334 C-25.87012695 333.0301416 -25.74025391 332.0602832 -25.60644531 331.06103516 C-18.45868873 275.11031871 -26.52091199 216.17727867 -30.28588867 160.12841797 C-31.80633255 137.48531756 -33.19610241 114.91816722 -33.24023438 92.21411133 C-33.25005075 89.17177071 -33.28129058 86.13007758 -33.3125 83.08789062 C-33.39070346 68.72304325 -32.4078346 55.09171596 -27.3125 41.5 C-27.05758789 40.80479248 -26.80267578 40.10958496 -26.54003906 39.39331055 C-11.65248926 0 -11.65248926 0 0 0 Z M203 150 C178.80648603 179.69571782 162.25992284 215.01161269 156.05761719 252.85375977 C155.88865307 253.87890718 155.71968895 254.90405458 155.54560471 255.96026707 C153.53852083 268.45567219 152.04618457 281.01344926 150.56548786 293.58013606 C150.15926586 297.01954303 149.74733313 300.45826755 149.33636475 303.89710999 C148.65008215 309.6473257 147.96840791 315.39807317 147.28955078 321.14916992 C146.50767116 327.77247221 145.7178361 334.39479096 144.92399335 341.01666921 C144.15348348 347.44577343 143.38895135 353.87557564 142.62697601 360.30569649 C142.30522335 363.01981204 141.98134896 365.73366142 141.6556778 368.44730949 C141.20314235 372.22852768 140.7574198 376.01048931 140.31347656 379.79272461 C140.17949966 380.9008551 140.04552277 382.0089856 139.90748596 383.1506958 C139.21296352 389.13604068 138.61103718 394.9763383 139 401 C141.25577649 403.10625816 142.71961319 404.15087023 145.375 405.5 C146.67319702 406.24975297 147.96745914 407.00635813 149.2578125 407.76953125 C150.2173584 408.32761475 150.2173584 408.32761475 151.19628906 408.89697266 C163.88069958 416.65389831 172.68162531 430.42897492 178 444 C179.98 448.95 179.98 448.95 182 454 C189.26 454 196.52 454 204 454 C204 353.68 204 253.36 204 150 C203.67 150 203.34 150 203 150 Z M-208 151 C-208 250.99 -208 350.98 -208 454 C-200.74 454 -193.48 454 -186 454 C-184.824375 451.091875 -183.64875 448.18375 -182.4375 445.1875 C-174.24927243 425.54741559 -161.92873441 411.09532502 -143 401 C-143.59940007 386.84249082 -145.29750469 372.82219317 -146.96567249 358.7579205 C-147.20569438 356.73222163 -147.44449965 354.70638288 -147.68291473 352.68049431 C-148.520485 345.56419452 -149.36280989 338.4484755 -150.20947266 331.33325195 C-150.98908036 324.78042267 -151.75792442 318.22639178 -152.52171636 311.67170197 C-153.18545582 305.98014629 -153.85720755 300.28957018 -154.53473353 294.59963936 C-154.93584499 291.22990228 -155.33306625 287.85983815 -155.72397614 284.48889351 C-158.22633079 262.95952592 -160.90912007 241.0680792 -168.0625 220.5 C-168.43971191 219.39672363 -168.81692383 218.29344727 -169.20556641 217.15673828 C-175.51189082 199.31464042 -189.30862023 160.34568989 -208 151 Z M-3 431 C-3.17950195 431.57516357 -3.35900391 432.15032715 -3.54394531 432.74291992 C-13.48672799 464.28308577 -26.5359558 495.1414025 -43.10595703 523.79956055 C-45.25583315 527.17800632 -45.25583315 527.17800632 -46 531 C-45.07960937 531.32871094 -44.15921875 531.65742187 -43.2109375 531.99609375 C-28.21035327 537.5491274 -12.11035293 546.33447061 -3 560 C-2.34 560 -1.68 560 -1 560 C0.427627 558.51005634 0.427627 558.51005634 1.9375 556.5625 C12.47508207 544.26865425 26.61715974 535.77181984 42 531 C40.37984547 525.14622739 37.4576815 520.19216813 34.5 514.9375 C19.71443005 488.1734659 8.19548468 460.15044839 -1 431 C-1.66 431 -2.32 431 -3 431 Z M-208 496 C-208 536.59 -208 577.18 -208 619 C-177.64 619 -147.28 619 -116 619 C-115.34 609.76 -114.68 600.52 -114 591 C-112.78160948 583.61350747 -111.52473033 576.31577341 -110 569 C-109.62339278 567.12792678 -109.24836146 565.25553575 -108.875 563.3828125 C-108.70742187 562.54379395 -108.53984375 561.70477539 -108.3671875 560.84033203 C-108.24601562 560.23302246 -108.12484375 559.62571289 -108 559 C-108.66418945 558.84442627 -109.32837891 558.68885254 -110.01269531 558.52856445 C-135.89016652 552.41374404 -158.32837398 544.0520511 -174 521 C-175.51174596 518.53850567 -176.93038997 516.03631555 -178.3125 513.5 C-178.63814941 512.90751465 -178.96379883 512.3150293 -179.29931641 511.70458984 C-182.02819827 506.47813539 -183.23231911 501.89226965 -185 496 C-192.59 496 -200.18 496 -208 496 Z M181 496 C180.484375 497.711875 179.96875 499.42375 179.4375 501.1875 C175.64642256 512.48092017 169.87259972 522.09778462 162 531 C161.24009766 531.90105469 161.24009766 531.90105469 160.46484375 532.8203125 C145.76028566 548.99156565 124.55436542 554.57491627 104 559 C104.14099121 559.66306152 104.28198242 560.32612305 104.42724609 561.00927734 C108.54644714 580.53921581 110.82385886 599.0056007 112 619 C142.36 619 172.72 619 204 619 C204 578.41 204 537.82 204 496 C196.41 496 188.82 496 181 496 Z M-67 569 C-69.71938913 578.38672389 -71.53359858 587.67980792 -72.75 597.375 C-72.87737549 598.37208984 -73.00475098 599.36917969 -73.13598633 600.39648438 C-73.88688188 606.73200118 -74 612.50591043 -74 619 C-57.17 619 -40.34 619 -23 619 C-24.46775005 602.85474942 -29.22495588 590.24944836 -41.875 579.625 C-49.72820515 573.76511603 -57.29246253 570.38384045 -67 569 Z M34.55859375 582.18359375 C24.74235207 592.29880726 19 604.88541156 19 619 C35.83 619 52.66 619 70 619 C69.39285558 602.33855715 69.39285558 602.33855715 67.0625 586.125 C66.89298828 585.22910156 66.72347656 584.33320312 66.54882812 583.41015625 C65.60200781 578.52125138 64.44745276 573.76426154 63 569 C52.47841868 569 42.1629217 575.38228283 34.55859375 582.18359375 Z M-69 661 C-65.78822795 674.26241764 -65.78822795 674.26241764 -61.3125 686.9375 C-60.9707373 687.77176514 -60.62897461 688.60603027 -60.27685547 689.46557617 C-52.49928135 708.03907158 -42.05734411 724.70204654 -29 740 C-27.99880635 741.2281946 -26.99856945 742.45717088 -26 743.6875 C-25.34 744.450625 -24.68 745.21375 -24 746 C-23.67 746 -23.34 746 -23 746 C-23 717.95 -23 689.9 -23 661 C-38.18 661 -53.36 661 -69 661 Z M19 661 C19 689.05 19 717.1 19 746 C42.49945282 722.50054718 57.55694907 693.2532207 65 661 C49.82 661 34.64 661 19 661 Z " fill="#FFD500" transform="translate(252,2)"/>
</svg>
